<?xml version="1.0" encoding="UTF-8" standalone="no"?>
<!DOCTYPE svg PUBLIC "-//W3C//DTD SVG 1.1//EN"
 "http://www.w3.org/Graphics/SVG/1.1/DTD/svg11.dtd">
<!-- Generated by graphviz version 2.50.0 (20211204.2007)
 -->
<!-- Title: G Pages: 1 -->
<svg width="409pt" height="238pt"
 viewBox="0.00 0.00 409.22 237.85" xmlns="http://www.w3.org/2000/svg" xmlns:xlink="http://www.w3.org/1999/xlink">
<g id="graph0" class="graph" transform="scale(1 1) rotate(0) translate(4 233.85)">
<title>G</title><style>.edge>path:hover{stroke-width:8}</style>
<polygon fill="white" stroke="transparent" points="-4,4 -4,-233.85 405.22,-233.85 405.22,4 -4,4"/>
<!-- func_compute_limitset_meansmat -->
<g id="node1" class="node">
<title>func_compute_limitset_meansmat</title><style>.edge>path:hover{stroke-width:8}</style>
<ellipse fill="#a44646" stroke="black" cx="100.41" cy="-21.21" rx="100.32" ry="21.43"/>
<text text-anchor="middle" x="100.41" y="-24.21" font-family="Helvetica,sans-Serif" font-size="10.00" fill="#ffffff">func.</text>
<text text-anchor="middle" x="100.41" y="-13.21" font-family="Helvetica,sans-Serif" font-size="10.00" fill="#ffffff">compute_limitset_meansmat</text>
</g>
<!-- func_compute_rref -->
<g id="node2" class="node">
<title>func_compute_rref</title><style>.edge>path:hover{stroke-width:8}</style>
<ellipse fill="#b34c4c" stroke="black" cx="77.41" cy="-99.64" rx="51.74" ry="21.43"/>
<text text-anchor="middle" x="77.41" y="-102.64" font-family="Helvetica,sans-Serif" font-size="10.00" fill="#ffffff">func.</text>
<text text-anchor="middle" x="77.41" y="-91.64" font-family="Helvetica,sans-Serif" font-size="10.00" fill="#ffffff">compute_rref</text>
</g>
<!-- func_compute_smat -->
<g id="node3" class="node">
<title>func_compute_smat</title><style>.edge>path:hover{stroke-width:8}</style>
<ellipse fill="#c04040" stroke="black" cx="204.41" cy="-99.64" rx="57.05" ry="21.43"/>
<text text-anchor="middle" x="204.41" y="-102.64" font-family="Helvetica,sans-Serif" font-size="10.00" fill="#ffffff">func.</text>
<text text-anchor="middle" x="204.41" y="-91.64" font-family="Helvetica,sans-Serif" font-size="10.00" fill="#ffffff">compute_smat</text>
</g>
<!-- func_compute_smat&#45;&gt;func_compute_limitset_meansmat -->
<g id="edge1" class="edge">
<title>func_compute_smat&#45;&gt;func_compute_limitset_meansmat</title><style>.edge>path:hover{stroke-width:8}</style>
<path fill="none" stroke="black" d="M179.5,-80.33C166.24,-70.59 149.71,-58.45 135.2,-47.78"/>
<polygon fill="#c04040" stroke="black" points="137.07,-44.81 126.93,-41.71 132.92,-50.45 137.07,-44.81"/>
</g>
<!-- func_make_hiergraph -->
<g id="node4" class="node">
<title>func_make_hiergraph</title><style>.edge>path:hover{stroke-width:8}</style>
<ellipse fill="#ac4949" stroke="black" cx="340.41" cy="-99.64" rx="60.62" ry="21.43"/>
<text text-anchor="middle" x="340.41" y="-102.64" font-family="Helvetica,sans-Serif" font-size="10.00" fill="#ffffff">func.</text>
<text text-anchor="middle" x="340.41" y="-91.64" font-family="Helvetica,sans-Serif" font-size="10.00" fill="#ffffff">make_hiergraph</text>
</g>
<!-- networkx -->
<g id="node5" class="node">
<title>networkx</title><style>.edge>path:hover{stroke-width:8}</style>
<ellipse fill="#40c040" stroke="black" cx="340.41" cy="-211.85" rx="32.93" ry="18"/>
<text text-anchor="middle" x="340.41" y="-209.35" font-family="Helvetica,sans-Serif" font-size="10.00" fill="#000000">networkx</text>
</g>
<!-- networkx&#45;&gt;func_make_hiergraph -->
<g id="edge2" class="edge">
<title>networkx&#45;&gt;func_make_hiergraph</title><style>.edge>path:hover{stroke-width:8}</style>
<path fill="none" stroke="black" d="M340.41,-193.63C340.41,-177 340.41,-151.46 340.41,-131.35"/>
<polygon fill="#40c040" stroke="black" points="343.91,-131.11 340.41,-121.11 336.91,-131.11 343.91,-131.11"/>
</g>
<!-- numpy -->
<g id="node6" class="node">
<title>numpy</title><style>.edge>path:hover{stroke-width:8}</style>
<ellipse fill="#1919e6" stroke="black" cx="77.41" cy="-211.85" rx="27.16" ry="18"/>
<text text-anchor="middle" x="77.41" y="-209.35" font-family="Helvetica,sans-Serif" font-size="10.00" fill="#ffffff">numpy</text>
</g>
<!-- numpy&#45;&gt;func_compute_limitset_meansmat -->
<g id="edge3" class="edge">
<title>numpy&#45;&gt;func_compute_limitset_meansmat</title><style>.edge>path:hover{stroke-width:8}</style>
<path fill="none" stroke="black" d="M77.41,-156.85C91.54,-128.72 32.02,-148.19 16.41,-120.85 7.06,-104.48 7.53,-95.06 16.41,-78.43 23.53,-65.1 35.36,-54.37 47.94,-46.01"/>
<polygon fill="#1919e6" stroke="black" points="50.04,-48.83 56.71,-40.6 46.36,-42.87 50.04,-48.83"/>
<path fill="none" stroke="black" d="M73.55,-193.68C72.01,-182.81 71.74,-168.8 77.41,-157.85"/>
</g>
<!-- numpy&#45;&gt;func_compute_rref -->
<g id="edge4" class="edge">
<title>numpy&#45;&gt;func_compute_rref</title><style>.edge>path:hover{stroke-width:8}</style>
<path fill="none" stroke="black" d="M77.41,-156.85C81.33,-149.04 82.51,-139.81 82.38,-131.12"/>
<polygon fill="#1919e6" stroke="black" points="85.86,-130.64 81.68,-120.9 78.87,-131.12 85.86,-130.64"/>
</g>
<!-- numpy&#45;&gt;func_compute_smat -->
<g id="edge5" class="edge">
<title>numpy&#45;&gt;func_compute_smat</title><style>.edge>path:hover{stroke-width:8}</style>
<path fill="none" stroke="black" d="M77.41,-156.85C84.71,-142.3 119.65,-127.46 151.03,-116.69"/>
<polygon fill="#1919e6" stroke="black" points="152.25,-119.97 160.62,-113.48 150.03,-113.33 152.25,-119.97"/>
</g>
<!-- numpy&#45;&gt;func_make_hiergraph -->
<g id="edge6" class="edge">
<title>numpy&#45;&gt;func_make_hiergraph</title><style>.edge>path:hover{stroke-width:8}</style>
<path fill="none" stroke="black" d="M77.41,-156.85C96.99,-117.86 227.96,-130.92 270.41,-120.85 275.43,-119.66 280.64,-118.34 285.83,-116.95"/>
<polygon fill="#1919e6" stroke="black" points="287.05,-120.25 295.77,-114.23 285.2,-113.49 287.05,-120.25"/>
</g>
</g>
</svg>
