<?xml version="1.0" encoding="UTF-8" standalone="no"?>
<!DOCTYPE svg PUBLIC "-//W3C//DTD SVG 1.1//EN"
 "http://www.w3.org/Graphics/SVG/1.1/DTD/svg11.dtd">
<!-- Generated by graphviz version 2.50.0 (20211204.2007)
 -->
<!-- Title: G Pages: 1 -->
<svg width="322pt" height="188pt"
 viewBox="0.00 0.00 322.26 188.00" xmlns="http://www.w3.org/2000/svg" xmlns:xlink="http://www.w3.org/1999/xlink">
<g id="graph0" class="graph" transform="scale(1 1) rotate(0) translate(4 184)">
<title>G</title><style>.edge>path:hover{stroke-width:8}</style>
<polygon fill="white" stroke="transparent" points="-4,4 -4,-184 318.26,-184 318.26,4 -4,4"/>
<!-- ReactionNetwork -->
<g id="node1" class="node">
<title>ReactionNetwork</title><style>.edge>path:hover{stroke-width:8}</style>
<ellipse fill="#964040" stroke="black" cx="166" cy="-18" rx="52.96" ry="18"/>
<text text-anchor="middle" x="166" y="-15.5" font-family="Helvetica,sans-Serif" font-size="10.00" fill="#ffffff">ReactionNetwork</text>
</g>
<!-- func -->
<g id="node2" class="node">
<title>func</title><style>.edge>path:hover{stroke-width:8}</style>
<ellipse fill="#a2b653" stroke="black" cx="27" cy="-90" rx="27" ry="18"/>
<text text-anchor="middle" x="27" y="-87.5" font-family="Helvetica,sans-Serif" font-size="10.00" fill="#000000">func</text>
</g>
<!-- func&#45;&gt;ReactionNetwork -->
<g id="edge1" class="edge">
<title>func&#45;&gt;ReactionNetwork</title><style>.edge>path:hover{stroke-width:8}</style>
<path fill="none" stroke="black" d="M47.81,-78.52C69.06,-67.82 102.51,-50.98 128.4,-37.93"/>
<polygon fill="#a2b653" stroke="black" points="130.21,-40.94 137.57,-33.32 127.06,-34.69 130.21,-40.94"/>
</g>
<!-- networkx -->
<g id="node3" class="node">
<title>networkx</title><style>.edge>path:hover{stroke-width:8}</style>
<ellipse fill="#40c073" stroke="black" cx="105" cy="-90" rx="32.93" ry="18"/>
<text text-anchor="middle" x="105" y="-87.5" font-family="Helvetica,sans-Serif" font-size="10.00" fill="#000000">networkx</text>
</g>
<!-- networkx&#45;&gt;ReactionNetwork -->
<g id="edge2" class="edge">
<title>networkx&#45;&gt;ReactionNetwork</title><style>.edge>path:hover{stroke-width:8}</style>
<path fill="none" stroke="black" d="M118.54,-73.46C126.29,-64.57 136.19,-53.21 144.94,-43.16"/>
<polygon fill="#40c073" stroke="black" points="147.72,-45.31 151.65,-35.47 142.44,-40.71 147.72,-45.31"/>
</g>
<!-- numpy -->
<g id="node4" class="node">
<title>numpy</title><style>.edge>path:hover{stroke-width:8}</style>
<ellipse fill="#3370cc" stroke="black" cx="180" cy="-162" rx="27.16" ry="18"/>
<text text-anchor="middle" x="180" y="-159.5" font-family="Helvetica,sans-Serif" font-size="10.00" fill="#ffffff">numpy</text>
</g>
<!-- numpy&#45;&gt;ReactionNetwork -->
<g id="edge3" class="edge">
<title>numpy&#45;&gt;ReactionNetwork</title><style>.edge>path:hover{stroke-width:8}</style>
<path fill="none" stroke="black" d="M178.31,-143.87C175.93,-119.67 171.54,-75.21 168.7,-46.39"/>
<polygon fill="#3370cc" stroke="black" points="172.16,-45.8 167.69,-36.19 165.19,-46.48 172.16,-45.8"/>
</g>
<!-- scipy -->
<g id="node5" class="node">
<title>scipy</title><style>.edge>path:hover{stroke-width:8}</style>
<ellipse fill="#a731c4" stroke="black" cx="221" cy="-90" rx="27" ry="18"/>
<text text-anchor="middle" x="221" y="-87.5" font-family="Helvetica,sans-Serif" font-size="10.00" fill="#ffffff">scipy</text>
</g>
<!-- numpy&#45;&gt;scipy -->
<g id="edge4" class="edge">
<title>numpy&#45;&gt;scipy</title><style>.edge>path:hover{stroke-width:8}</style>
<path fill="none" stroke="black" d="M189.51,-144.76C194.53,-136.19 200.8,-125.49 206.42,-115.9"/>
<polygon fill="#3370cc" stroke="black" points="209.51,-117.55 211.54,-107.15 203.47,-114.01 209.51,-117.55"/>
</g>
<!-- scipy&#45;&gt;ReactionNetwork -->
<g id="edge5" class="edge">
<title>scipy&#45;&gt;ReactionNetwork</title><style>.edge>path:hover{stroke-width:8}</style>
<path fill="none" stroke="black" d="M209.07,-73.81C202.15,-65.02 193.29,-53.73 185.4,-43.69"/>
<polygon fill="#a731c4" stroke="black" points="188,-41.33 179.06,-35.63 182.49,-45.65 188,-41.33"/>
</g>
<!-- scipy_linalg -->
<g id="node6" class="node">
<title>scipy_linalg</title><style>.edge>path:hover{stroke-width:8}</style>
<ellipse fill="#9f3db8" stroke="black" cx="276" cy="-162" rx="38.03" ry="18"/>
<text text-anchor="middle" x="276" y="-159.5" font-family="Helvetica,sans-Serif" font-size="10.00" fill="#ffffff">scipy.linalg</text>
</g>
<!-- scipy_linalg&#45;&gt;ReactionNetwork -->
<g id="edge6" class="edge">
<title>scipy_linalg&#45;&gt;ReactionNetwork</title><style>.edge>path:hover{stroke-width:8}</style>
<path fill="none" stroke="black" d="M276.32,-143.96C275.85,-124.73 272.48,-93.37 257,-72 245.51,-56.13 227.69,-44.26 210.86,-35.82"/>
<polygon fill="#9f3db8" stroke="black" points="212.2,-32.58 201.66,-31.49 209.21,-38.92 212.2,-32.58"/>
</g>
</g>
</svg>
